Coordinates
version=1
nRows=10
nColumns=34
inDegrees=yes

Units are S.I. units (second, meters, Newtons, ...)
If the header above contains a line with 'inDegrees', this indicates whether rotational values are in degrees (yes) or radians (no).

endheader
time	pelvis_tilt	pelvis_list	pelvis_rotation	pelvis_tx	pelvis_ty	pelvis_tz	hip_flexion_r	hip_adduction_r	hip_rotation_r	knee_angle_r	ankle_angle_r	subtalar_angle_r	mtp_angle_r	hip_flexion_l	hip_adduction_l	hip_rotation_l	knee_angle_l	ankle_angle_l	subtalar_angle_l	mtp_angle_l	lumbar_extension	lumbar_bending	lumbar_rotation	arm_flex_r	arm_add_r	arm_rot_r	elbow_flex_r	pro_sup_r	arm_flex_l	arm_add_l	arm_rot_l	elbow_flex_l	pro_sup_l
      5.46666670	    -11.27847377	      1.44687558	     -0.42609787	     -0.03837155	      1.28523795	     -0.08921947	      9.83424843	     -0.45717889	      2.46101888	      2.30201367	      6.23816062	     -9.92106200	      0.00000000	     13.66350005	      0.69503922	      7.80094930	      7.36513873	      4.43485627	     -7.20366774	      0.00000000	      1.48250791	     -0.83355802	      1.91868185	     -7.88195014	     -6.07871865	    -17.73547146	     21.79383825	    100.68078506	     -9.40753436	     -7.36928968	    -15.46716014	     12.36153561	     92.47087924
      5.48333330	    -11.28248918	      1.45308478	     -0.49146517	     -0.03966071	      1.28646858	     -0.08906003	      9.82751076	     -0.42303776	      2.45718167	      2.31031807	      6.27032017	     -9.93997863	      0.00000000	     13.65855465	      0.71512269	      7.81224633	      7.34708827	      4.45689273	     -7.20607017	      0.00000000	      1.49062294	     -0.81797895	      1.87842301	     -7.91940311	     -6.09339803	    -17.75028334	     21.78331131	    100.68152075	     -9.37404402	     -7.39042980	    -15.48461293	     12.37503214	     92.46822476
      5.50000000	    -11.32841320	      1.46304806	     -0.50007043	     -0.03890220	      1.28589928	     -0.08903425	      9.80845575	     -0.40664644	      2.46114580	      2.32740259	      6.27477719	     -9.94197222	      0.00000000	     13.63152068	      0.71804662	      7.81230021	      7.36515005	      4.46080016	     -7.20852154	      0.00000000	      1.49150565	     -0.81352189	      1.86717345	     -7.92146741	     -6.09461148	    -17.75389457	     21.78297244	    100.68149180	     -9.35603548	     -7.39593674	    -15.48940586	     12.38141235	     92.46736632
      5.51666670	    -11.34625469	      1.35247273	     -0.68557018	     -0.04014141	      1.28519034	     -0.08907114	      9.99986446	     -0.22607596	      2.54910490	      2.69458410	      6.56948212	    -10.17869834	      0.00000000	     13.78441195	      0.59973147	      7.72871151	      7.65416645	      4.77563351	     -7.38528348	      0.00000000	      1.13438815	     -0.59760713	      1.81344087	     -7.68345918	     -6.11839406	    -18.01466757	     21.92695458	    100.66605656	     -8.93559094	     -7.36522171	    -15.86104834	     12.55771795	     92.39863865
      5.53333330	    -11.36828316	      1.41032101	     -0.77143883	     -0.04158260	      1.28626485	     -0.08857942	     10.09776361	     -0.24735745	      2.73140049	      2.85414814	      6.27592283	    -10.72502613	      0.00000000	     13.80292249	      0.67138419	      7.61749187	      7.83462052	      4.77100102	     -7.52031207	      0.00000000	      0.86084234	     -0.64756695	      1.85085081	     -7.74444212	     -5.39967330	    -22.25720109	     23.05006390	    100.62887362	     -8.73602752	     -6.60358327	    -22.75438018	     13.81079767	     91.53867769
      5.55000000	    -11.50749660	      1.40296322	     -0.91189018	     -0.04255722	      1.28270670	     -0.08800481	     10.31568471	     -0.18863913	      2.69498802	      2.92678117	      6.31499122	    -10.75937976	      0.00000000	     14.08363414	      0.63632900	      7.47713017	      8.09157179	      4.90030444	     -7.67947635	      0.00000000	      0.63200433	     -0.62721712	      1.78364886	     -7.39993341	     -5.34123618	    -22.18170072	     23.19144769	    100.67472455	     -8.20154400	     -6.59222380	    -22.77114292	     14.08070202	     91.58796498
      5.56666670	    -11.66101869	      1.49110134	     -1.00837329	     -0.04298508	      1.28209873	     -0.08808561	     10.63112974	     -0.26318200	      2.53422397	      3.20287425	      6.29261137	    -10.89632593	      0.00000000	     14.33825023	      0.72177860	      7.33946823	      8.46309745	      5.06193170	     -7.86045200	      0.00000000	      0.41457015	     -0.67680539	      1.68160218	     -7.11100226	     -5.22674459	    -22.10174411	     23.37050618	    100.70703273	     -7.64599158	     -6.43739554	    -22.74987067	     14.43711490	     91.63691240
      5.58333330	    -12.10995651	      1.52378937	     -1.14969484	     -0.04508647	      1.28273486	     -0.08816423	     11.33250329	     -0.26403726	      2.66398221	      3.53002827	      6.21063724	    -11.31885159	      0.00000000	     14.91957163	      0.74402745	      7.24406367	      8.79987795	      5.18550527	     -8.06443132	      0.00000000	      0.46904128	     -0.68932965	      1.70616584	     -7.15709700	     -5.16623687	    -21.67400400	     24.29432221	    100.87207903	     -7.38129716	     -6.27668968	    -22.61195880	     16.11837084	     91.99525121
      5.60000000	    -12.30593761	      1.62717971	     -1.23480283	     -0.04558856	      1.28169978	     -0.08752701	     11.68603182	     -0.34893352	      2.56176388	      3.60352785	      6.13804820	    -11.36202058	      0.00000000	     15.25259801	      0.83422580	      7.07707155	      9.05934042	      5.23170550	     -8.21568605	      0.00000000	      0.18895633	     -0.80622482	      1.49590268	     -6.71757007	     -4.97979014	    -21.58186201	     24.45654765	    100.89144550	     -6.53439154	     -6.13374887	    -22.52581488	     16.54996605	     92.05735967
      5.61666670	    -12.52591474	      1.74129515	     -1.32833218	     -0.04616256	      1.28318588	     -0.08713124	     12.22030115	     -0.43469611	      2.54620695	      4.00701436	      6.15259122	    -11.44300045	      0.00000000	     15.71546438	      0.93914891	      6.98396107	      9.45621371	      5.32434587	     -8.42336950	      0.00000000	     -0.10022581	     -0.93180497	      1.32955322	     -6.28897091	     -4.86676762	    -21.39182731	     24.78048854	    100.93035632	     -5.67834822	     -6.07708516	    -22.26220094	     17.54524256	     92.22271547
